Coordinates
version=1
nRows=34
nColumns=17
inDegrees=yes

Units are S.I. units (second, meters, Newtons, ...)
If the header above contains a line with 'inDegrees', this indicates whether rotational values are in degrees (yes) or radians (no).

endheader
time	pelvis_tilt	pelvis_tx	pelvis_ty	hip_flexion_l	hip_flexion_r	knee_angle_l	knee_angle_r	ankle_angle_l	ankle_angle_r	lumbar_extension	FC_flexion	FC_adduction	FC_rotation	FC_tx	FC_ty	FC_tz
      7.37000000	    104.40319290	     -0.33961600	      1.03352734	    -15.81247296	     80.23630724	      0.92131734	    -49.26847480	    -28.85581448	    -35.67347190	    -31.30040129	      1.14228757	     22.83687605	     91.70425657	     -0.14009248	     -0.12162761	     -0.20732371
      7.38000000	    104.47352081	     -0.33967068	      1.03354448	    -15.88079150	     80.19545503	      0.90631981	    -49.29397094	    -28.85427761	    -35.50248379	    -31.35684799	      1.17278932	     22.84047044	     91.71901649	     -0.14021798	     -0.12177408	     -0.20722138
      7.39000000	    104.45966238	     -0.33968432	      1.03351726	    -15.87254152	     80.20627348	      0.92383975	    -49.25874414	    -28.84527651	    -35.47559611	    -31.36855851	      1.15572059	     22.81619206	     91.79622462	     -0.14011433	     -0.12184706	     -0.20715098
      7.40000000	    104.45451985	     -0.33967776	      1.03347424	    -15.86778135	     80.19787309	      0.93320346	    -49.19636946	    -28.83949975	    -35.45982045	    -31.34928926	      1.10411157	     22.77479185	     91.87743182	     -0.13994128	     -0.12179318	     -0.20720388
      7.41000000	    104.46476924	     -0.33971160	      1.03354840	    -15.88412903	     80.19506356	      0.93078222	    -49.17250731	    -28.83633739	    -35.47617178	    -31.33616979	      1.06797602	     22.75323364	     91.91401143	     -0.13990870	     -0.12178493	     -0.20727173
      7.42000000	    104.48531153	     -0.33974149	      1.03355621	    -15.90922418	     80.18807681	      0.93092214	    -49.15158725	    -28.85105454	    -35.63214718	    -31.36941259	      1.07277580	     22.73402629	     91.85680190	     -0.13987950	     -0.12178933	     -0.20729636
      7.43000000	    104.48087767	     -0.33976184	      1.03353899	    -15.90472725	     80.19935565	      0.93653922	    -49.12256574	    -28.85124105	    -35.64203579	    -31.38120309	      1.08040426	     22.75559088	     91.74558641	     -0.13988586	     -0.12173101	     -0.20723881
      7.44000000	    104.48540406	     -0.33977182	      1.03358156	    -15.91529316	     80.21869375	      0.93824070	    -49.13921387	    -28.85130003	    -35.66745159	    -31.38197599	      1.14202989	     22.79391750	     91.62653909	     -0.13996101	     -0.12179621	     -0.20725266
      7.45000000	    104.49724017	     -0.33978049	      1.03361998	    -15.92919866	     80.23371150	      0.93414657	    -49.17078130	    -28.86240854	    -35.65932475	    -31.36641942	      1.21728870	     22.81863581	     91.56233023	     -0.14005903	     -0.12186310	     -0.20725136
      7.46000000	    104.49125023	     -0.33979699	      1.03358659	    -15.92250542	     80.25867779	      0.94239885	    -49.18465574	    -28.86323341	    -35.65090389	    -31.39291817	      1.24905216	     22.83806869	     91.57844814	     -0.14006059	     -0.12197022	     -0.20723555
      7.47000000	    104.49263043	     -0.33981717	      1.03359142	    -15.93048014	     80.27775671	      0.95216228	    -49.20975769	    -28.86173557	    -35.61502535	    -31.38668488	      1.30071266	     22.83515662	     91.60344937	     -0.13995748	     -0.12210634	     -0.20727493
      7.48000000	    104.50047574	     -0.33984284	      1.03357924	    -15.93475650	     80.28960421	      0.95012264	    -49.21486561	    -28.86372211	    -35.61545625	    -31.38645536	      1.31067093	     22.83938841	     91.64418032	     -0.13993222	     -0.12214314	     -0.20726759
      7.49000000	    104.50071617	     -0.33987479	      1.03360901	    -15.93927491	     80.30718665	      0.95007858	    -49.20813863	    -28.86374509	    -35.62248581	    -31.40280857	      1.31271366	     22.83613755	     91.65959809	     -0.13995962	     -0.12209159	     -0.20718264
      7.50000000	    104.51264925	     -0.33989537	      1.03359464	    -15.94970716	     80.32277278	      0.94609062	    -49.21775707	    -28.86425664	    -35.62834883	    -31.39980178	      1.29319079	     22.84684568	     91.61269084	     -0.13996744	     -0.12205002	     -0.20713269
      7.51000000	    104.51054265	     -0.33996130	      1.03363522	    -15.93977676	     80.33971765	      0.94760335	    -49.21237374	    -28.87957095	    -35.66597597	    -31.41424255	      1.33311350	     22.87527778	     91.50431636	     -0.14001288	     -0.12204483	     -0.20709606
      7.52000000	    104.53569434	     -0.33998025	      1.03363152	    -15.96590106	     80.35313919	      0.94145629	    -49.24597899	    -28.88442491	    -35.66502081	    -31.41468885	      1.36877690	     22.90555612	     91.39621093	     -0.14009898	     -0.12219921	     -0.20711697
      7.53000000	    104.53301336	     -0.34000698	      1.03364591	    -15.96944508	     80.37396775	      0.95146708	    -49.24762465	    -28.88665483	    -35.62572225	    -31.43129197	      1.42452647	     22.92155724	     91.31809992	     -0.14019396	     -0.12227361	     -0.20727190
      7.54000000	    104.57818425	     -0.34005361	      1.03361648	    -16.01956269	     80.35398635	      0.95653234	    -49.27524970	    -28.91190560	    -35.40369490	    -31.47139259	      1.52814061	     22.88344029	     91.28176429	     -0.14012925	     -0.12226004	     -0.20722391
      7.55000000	    104.55992931	     -0.34006753	      1.03350327	    -15.99821524	     80.34824294	      0.97006190	    -49.18116962	    -28.91197890	    -35.40987856	    -31.48955281	      1.54912768	     22.83927478	     91.28055462	     -0.14008215	     -0.12209618	     -0.20737500
      7.56000000	    104.54071161	     -0.34008403	      1.03352725	    -15.98272589	     80.38378496	      0.97869747	    -49.14986648	    -28.91901351	    -35.57266550	    -31.45530131	      1.58749587	     22.80122236	     91.25299380	     -0.14021940	     -0.12200258	     -0.20744501
      7.57000000	    104.55264424	     -0.34010336	      1.03355962	    -15.99437298	     80.39617426	      0.97381350	    -49.13617761	    -28.92098169	    -35.60233522	    -31.46639983	      1.63965143	     22.79143947	     91.15008859	     -0.14045760	     -0.12185460	     -0.20757102
      7.58000000	    104.55346953	     -0.34014475	      1.03358150	    -16.00393412	     80.40704539	      0.97993158	    -49.10804956	    -28.91270274	    -35.61604529	    -31.46807613	      1.53998803	     22.89376567	     91.16038656	     -0.14023252	     -0.12209909	     -0.20722196
      7.59000000	    104.55541083	     -0.34018615	      1.03358376	    -16.00644463	     80.40393736	      0.98341300	    -49.06335103	    -28.90691877	    -35.61266505	    -31.47429464	      1.52739418	     22.91120020	     91.11026828	     -0.14019444	     -0.12203145	     -0.20714038
      7.60000000	    104.57980147	     -0.34019744	      1.03361468	    -16.03548059	     80.42152611	      0.97900531	    -49.10469451	    -28.89661695	    -35.60009605	    -31.46405949	      1.56587562	     22.87753073	     91.04559154	     -0.14026243	     -0.12210265	     -0.20734079
      7.61000000	    104.58037878	     -0.34022995	      1.03357700	    -16.03637185	     80.41872360	      0.98569995	    -49.05399233	    -28.88967305	    -35.59209258	    -31.47380336	      1.57681123	     22.85317882	     91.03507686	     -0.14020310	     -0.12212641	     -0.20750978
      7.62000000	    104.58776077	     -0.34026145	      1.03365102	    -16.04761585	     80.43423393	      0.98410964	    -49.03362249	    -28.88427655	    -35.59165055	    -31.47668741	      1.58137627	     22.83111103	     91.03666700	     -0.14031792	     -0.12216060	     -0.20765091
      7.63000000	    104.59339389	     -0.34029610	      1.03362528	    -16.06564868	     80.43712398	      1.01399668	    -48.97465905	    -28.83246718	    -35.68048053	    -31.50766479	      1.55146595	     22.86223344	     91.04943108	     -0.14020860	     -0.12228265	     -0.20746482
      7.64000000	    104.62536606	     -0.34031966	      1.03366047	    -16.09799158	     80.43840530	      1.00465584	    -48.97042813	    -28.81863415	    -35.70571709	    -31.51632690	      1.50538944	     22.95321483	     91.10441762	     -0.13997387	     -0.12262411	     -0.20707510
      7.65000000	    104.62753393	     -0.34035717	      1.03370498	    -16.10571732	     80.44714946	      1.00704885	    -48.93152578	    -28.81138586	    -35.71350483	    -31.53343089	      1.56543622	     22.95667971	     91.03079812	     -0.14007825	     -0.12264133	     -0.20707762
      7.66000000	    104.64384938	     -0.34037083	      1.03369110	    -16.12012450	     80.44300973	      1.00052864	    -48.88222873	    -28.81562906	    -35.70613401	    -31.53311086	      1.56616500	     22.96792056	     90.96257077	     -0.14006507	     -0.12266701	     -0.20698750
      7.67000000	    104.64248745	     -0.34040291	      1.03370370	    -16.11890442	     80.45107525	      1.00476979	    -48.82981671	    -28.81668690	    -35.69002355	    -31.55346456	      1.55685243	     22.94741648	     90.92681550	     -0.13999782	     -0.12273412	     -0.20706019
      7.68000000	    104.65041065	     -0.34044478	      1.03365284	    -16.12531977	     80.44245453	      1.00654432	    -48.75301770	    -28.81675554	    -35.67213852	    -31.54622677	      1.54244220	     22.91573565	     90.92763507	     -0.13993788	     -0.12273446	     -0.20712163
      7.69000000	    104.65900692	     -0.34046810	      1.03372693	    -16.13650072	     80.46496052	      1.00263718	    -48.72350624	    -28.81737915	    -35.66892568	    -31.56023596	      1.53896536	     22.87871612	     90.93614035	     -0.13994401	     -0.12285695	     -0.20726975
      7.70000000	    104.68207672	     -0.34049325	      1.03375872	    -16.16894735	     80.46006166	      1.00809604	    -48.66028794	    -28.81945127	    -35.67443267	    -31.59104989	      1.46550982	     22.87467101	     90.93824020	     -0.13979909	     -0.12294306	     -0.20709413
